<mxfile host="app.diagrams.net" agent="Mozilla/5.0 (Macintosh; Intel Mac OS X 10_15_7) AppleWebKit/537.36 (KHTML, like Gecko) Chrome/131.0.0.0 Safari/537.36" version="25.0.3">
  <diagram id="Ht1M8jgEwFfnCIfOTk4-" name="Page-1">
    <mxGraphModel dx="1523" dy="1833" grid="1" gridSize="10" guides="1" tooltips="1" connect="1" arrows="1" fold="1" page="1" pageScale="1" pageWidth="1169" pageHeight="827" math="0" shadow="0">
      <root>
        <mxCell id="0" />
        <mxCell id="1" parent="0" />
        <mxCell id="QtUD3xpYhkbIIIGHQEFI-63" value="Public S&lt;span style=&quot;background-color: initial;&quot;&gt;ubnet 10.0.103.0 / 24&lt;/span&gt;" style="points=[[0,0],[0.25,0],[0.5,0],[0.75,0],[1,0],[1,0.25],[1,0.5],[1,0.75],[1,1],[0.75,1],[0.5,1],[0.25,1],[0,1],[0,0.75],[0,0.5],[0,0.25]];outlineConnect=0;html=1;whiteSpace=wrap;fontSize=12;fontStyle=0;container=0;pointerEvents=0;collapsible=0;recursiveResize=0;shape=mxgraph.aws4.group;grIcon=mxgraph.aws4.group_security_group;grStroke=0;strokeColor=#6c8ebf;fillColor=#dae8fc;verticalAlign=top;align=left;spacingLeft=30;dashed=0;opacity=80;" parent="1" vertex="1">
          <mxGeometry x="770" y="550" width="250" height="210" as="geometry" />
        </mxCell>
        <mxCell id="QtUD3xpYhkbIIIGHQEFI-69" value="" style="endArrow=classic;html=1;rounded=0;exitX=0;exitY=0.5;exitDx=0;exitDy=0;dashed=1;edgeStyle=orthogonalEdgeStyle;exitPerimeter=0;" parent="1" source="QtUD3xpYhkbIIIGHQEFI-64" edge="1">
          <mxGeometry width="50" height="50" relative="1" as="geometry">
            <mxPoint x="720" y="490" as="sourcePoint" />
            <mxPoint x="1180" y="406" as="targetPoint" />
            <Array as="points">
              <mxPoint x="1110" y="655" />
              <mxPoint x="1110" y="406" />
            </Array>
          </mxGeometry>
        </mxCell>
        <mxCell id="QtUD3xpYhkbIIIGHQEFI-56" value="&lt;font color=&quot;#7ea6e0&quot; style=&quot;font-size: 16px;&quot;&gt;&amp;nbsp; &lt;font style=&quot;font-size: 16px;&quot;&gt;us-east-1b&lt;/font&gt;&lt;/font&gt;" style="fillColor=none;strokeColor=#147EBA;dashed=1;verticalAlign=top;fontStyle=0;fontColor=#147EBA;whiteSpace=wrap;html=1;container=0;flipH=0;direction=south;align=left;" parent="1" vertex="1">
          <mxGeometry x="220" y="290" width="1030" height="230" as="geometry" />
        </mxCell>
        <mxCell id="QtUD3xpYhkbIIIGHQEFI-57" value="Public S&lt;span style=&quot;background-color: initial;&quot;&gt;ubnet 10.0.102.0 / 24&lt;/span&gt;" style="points=[[0,0],[0.25,0],[0.5,0],[0.75,0],[1,0],[1,0.25],[1,0.5],[1,0.75],[1,1],[0.75,1],[0.5,1],[0.25,1],[0,1],[0,0.75],[0,0.5],[0,0.25]];outlineConnect=0;html=1;whiteSpace=wrap;fontSize=12;fontStyle=0;container=0;pointerEvents=0;collapsible=0;recursiveResize=0;shape=mxgraph.aws4.group;grIcon=mxgraph.aws4.group_security_group;grStroke=0;strokeColor=#6c8ebf;fillColor=#dae8fc;verticalAlign=top;align=left;spacingLeft=30;dashed=0;opacity=80;" parent="1" vertex="1">
          <mxGeometry x="770" y="300" width="250" height="210" as="geometry" />
        </mxCell>
        <mxCell id="QtUD3xpYhkbIIIGHQEFI-68" value="" style="endArrow=classic;html=1;rounded=0;exitX=0;exitY=0.5;exitDx=0;exitDy=0;dashed=1;exitPerimeter=0;" parent="1" source="QtUD3xpYhkbIIIGHQEFI-58" edge="1">
          <mxGeometry width="50" height="50" relative="1" as="geometry">
            <mxPoint x="1030" y="400" as="sourcePoint" />
            <mxPoint x="1180" y="405.9032258064517" as="targetPoint" />
          </mxGeometry>
        </mxCell>
        <mxCell id="UEzPUAAOIrF-is8g5C7q-74" value="AWS Cloud" style="points=[[0,0],[0.25,0],[0.5,0],[0.75,0],[1,0],[1,0.25],[1,0.5],[1,0.75],[1,1],[0.75,1],[0.5,1],[0.25,1],[0,1],[0,0.75],[0,0.5],[0,0.25]];outlineConnect=0;gradientColor=none;html=1;whiteSpace=wrap;fontSize=12;fontStyle=0;shape=mxgraph.aws4.group;grIcon=mxgraph.aws4.group_aws_cloud_alt;strokeColor=#232F3E;fillColor=none;verticalAlign=top;align=left;spacingLeft=30;fontColor=#232F3E;dashed=0;labelBackgroundColor=#ffffff;container=0;pointerEvents=0;collapsible=0;recursiveResize=0;" parent="1" vertex="1">
          <mxGeometry x="160" y="-30" width="1120" height="820" as="geometry" />
        </mxCell>
        <mxCell id="pngAXhnyiUt4axHz38OK-2" value="&lt;font color=&quot;#000000&quot;&gt;VPC 10.0.0.0 /16&lt;/font&gt;" style="points=[[0,0],[0.25,0],[0.5,0],[0.75,0],[1,0],[1,0.25],[1,0.5],[1,0.75],[1,1],[0.75,1],[0.5,1],[0.25,1],[0,1],[0,0.75],[0,0.5],[0,0.25]];outlineConnect=0;gradientColor=none;html=1;whiteSpace=wrap;fontSize=12;fontStyle=0;container=0;pointerEvents=0;collapsible=0;recursiveResize=0;shape=mxgraph.aws4.group;grIcon=mxgraph.aws4.group_vpc2;strokeColor=#8C4FFF;fillColor=none;verticalAlign=top;align=left;spacingLeft=30;fontColor=#AAB7B8;dashed=0;" parent="1" vertex="1">
          <mxGeometry x="190" y="10" width="1010" height="770" as="geometry" />
        </mxCell>
        <mxCell id="QtUD3xpYhkbIIIGHQEFI-30" value="&lt;font color=&quot;#7ea6e0&quot; style=&quot;font-size: 16px;&quot;&gt;&amp;nbsp; &lt;font style=&quot;font-size: 16px;&quot;&gt;us-east-1a&lt;/font&gt;&lt;/font&gt;" style="fillColor=none;strokeColor=#147EBA;dashed=1;verticalAlign=top;fontStyle=0;fontColor=#147EBA;whiteSpace=wrap;html=1;container=0;flipH=0;direction=south;align=left;" parent="1" vertex="1">
          <mxGeometry x="220" y="40" width="1030" height="230" as="geometry" />
        </mxCell>
        <mxCell id="QtUD3xpYhkbIIIGHQEFI-32" value="Public S&lt;span style=&quot;background-color: initial;&quot;&gt;ubnet 10.0.101.0 / 24&lt;/span&gt;" style="points=[[0,0],[0.25,0],[0.5,0],[0.75,0],[1,0],[1,0.25],[1,0.5],[1,0.75],[1,1],[0.75,1],[0.5,1],[0.25,1],[0,1],[0,0.75],[0,0.5],[0,0.25]];outlineConnect=0;html=1;whiteSpace=wrap;fontSize=12;fontStyle=0;container=0;pointerEvents=0;collapsible=0;recursiveResize=0;shape=mxgraph.aws4.group;grIcon=mxgraph.aws4.group_security_group;grStroke=0;strokeColor=#6c8ebf;fillColor=#dae8fc;verticalAlign=top;align=left;spacingLeft=30;dashed=0;opacity=80;" parent="1" vertex="1">
          <mxGeometry x="770" y="50" width="250" height="210" as="geometry" />
        </mxCell>
        <mxCell id="QtUD3xpYhkbIIIGHQEFI-39" value="" style="endArrow=classic;html=1;rounded=0;entryX=1;entryY=0.5;entryDx=0;entryDy=0;entryPerimeter=0;dashed=1;" parent="1" source="QtUD3xpYhkbIIIGHQEFI-31" target="QtUD3xpYhkbIIIGHQEFI-34" edge="1">
          <mxGeometry width="50" height="50" relative="1" as="geometry">
            <mxPoint x="345.4528301886792" y="330" as="sourcePoint" />
            <mxPoint x="770" y="240" as="targetPoint" />
          </mxGeometry>
        </mxCell>
        <mxCell id="QtUD3xpYhkbIIIGHQEFI-50" value="" style="endArrow=classic;html=1;rounded=0;exitX=0;exitY=0.5;exitDx=0;exitDy=0;exitPerimeter=0;edgeStyle=orthogonalEdgeStyle;dashed=1;" parent="1" source="QtUD3xpYhkbIIIGHQEFI-70" edge="1">
          <mxGeometry width="50" height="50" relative="1" as="geometry">
            <mxPoint x="385" y="180" as="sourcePoint" />
            <mxPoint x="1180" y="406" as="targetPoint" />
            <Array as="points">
              <mxPoint x="1110" y="155" />
              <mxPoint x="1110" y="406" />
            </Array>
          </mxGeometry>
        </mxCell>
        <mxCell id="QtUD3xpYhkbIIIGHQEFI-53" value="" style="outlineConnect=0;dashed=0;verticalLabelPosition=bottom;verticalAlign=top;align=center;html=1;shape=mxgraph.aws3.route_table;fillColor=#F58536;gradientColor=none;" parent="1" vertex="1">
          <mxGeometry x="1083" y="384" width="50" height="40" as="geometry" />
        </mxCell>
        <mxCell id="QtUD3xpYhkbIIIGHQEFI-31" value="Private Subnet 10.0.1.0 / 24" style="points=[[0,0],[0.25,0],[0.5,0],[0.75,0],[1,0],[1,0.25],[1,0.5],[1,0.75],[1,1],[0.75,1],[0.5,1],[0.25,1],[0,1],[0,0.75],[0,0.5],[0,0.25]];outlineConnect=0;html=1;whiteSpace=wrap;fontSize=12;fontStyle=0;container=0;pointerEvents=0;collapsible=0;recursiveResize=0;shape=mxgraph.aws4.group;grIcon=mxgraph.aws4.group_security_group;grStroke=0;strokeColor=#82b366;fillColor=#d5e8d4;verticalAlign=top;align=left;spacingLeft=30;dashed=0;opacity=70;" parent="1" vertex="1">
          <mxGeometry x="320" y="50" width="400" height="210" as="geometry" />
        </mxCell>
        <mxCell id="QtUD3xpYhkbIIIGHQEFI-46" value="" style="outlineConnect=0;dashed=0;verticalLabelPosition=bottom;verticalAlign=top;align=center;html=1;shape=mxgraph.aws3.route_table;fillColor=#F58536;gradientColor=none;" parent="1" vertex="1">
          <mxGeometry x="700" y="100" width="50" height="40" as="geometry" />
        </mxCell>
        <mxCell id="QtUD3xpYhkbIIIGHQEFI-59" value="" style="endArrow=classic;html=1;rounded=0;entryX=1;entryY=0.5;entryDx=0;entryDy=0;entryPerimeter=0;dashed=1;" parent="1" source="QtUD3xpYhkbIIIGHQEFI-60" target="QtUD3xpYhkbIIIGHQEFI-58" edge="1">
          <mxGeometry width="50" height="50" relative="1" as="geometry">
            <mxPoint x="345.4528301886792" y="580" as="sourcePoint" />
            <mxPoint x="770" y="490" as="targetPoint" />
          </mxGeometry>
        </mxCell>
        <mxCell id="QtUD3xpYhkbIIIGHQEFI-60" value="Private Subnet 10.0.2.0 / 24" style="points=[[0,0],[0.25,0],[0.5,0],[0.75,0],[1,0],[1,0.25],[1,0.5],[1,0.75],[1,1],[0.75,1],[0.5,1],[0.25,1],[0,1],[0,0.75],[0,0.5],[0,0.25]];outlineConnect=0;html=1;whiteSpace=wrap;fontSize=12;fontStyle=0;container=0;pointerEvents=0;collapsible=0;recursiveResize=0;shape=mxgraph.aws4.group;grIcon=mxgraph.aws4.group_security_group;grStroke=0;strokeColor=#82b366;fillColor=#d5e8d4;verticalAlign=top;align=left;spacingLeft=30;dashed=0;opacity=70;" parent="1" vertex="1">
          <mxGeometry x="320" y="300" width="400" height="210" as="geometry" />
        </mxCell>
        <mxCell id="QtUD3xpYhkbIIIGHQEFI-61" value="" style="outlineConnect=0;dashed=0;verticalLabelPosition=bottom;verticalAlign=top;align=center;html=1;shape=mxgraph.aws3.route_table;fillColor=#F58536;gradientColor=none;" parent="1" vertex="1">
          <mxGeometry x="700" y="350" width="50" height="40" as="geometry" />
        </mxCell>
        <mxCell id="QtUD3xpYhkbIIIGHQEFI-62" value="&lt;font color=&quot;#7ea6e0&quot; style=&quot;font-size: 16px;&quot;&gt;&amp;nbsp; &lt;font style=&quot;font-size: 16px;&quot;&gt;us-east-1c&lt;/font&gt;&lt;/font&gt;" style="fillColor=none;strokeColor=#147EBA;dashed=1;verticalAlign=top;fontStyle=0;fontColor=#147EBA;whiteSpace=wrap;html=1;container=0;flipH=0;direction=south;align=left;" parent="1" vertex="1">
          <mxGeometry x="220" y="540" width="1030" height="230" as="geometry" />
        </mxCell>
        <mxCell id="QtUD3xpYhkbIIIGHQEFI-65" value="" style="endArrow=classic;html=1;rounded=0;entryX=1;entryY=0.5;entryDx=0;entryDy=0;entryPerimeter=0;dashed=1;" parent="1" source="QtUD3xpYhkbIIIGHQEFI-66" target="QtUD3xpYhkbIIIGHQEFI-64" edge="1">
          <mxGeometry width="50" height="50" relative="1" as="geometry">
            <mxPoint x="345.4528301886792" y="830" as="sourcePoint" />
            <mxPoint x="770" y="740" as="targetPoint" />
          </mxGeometry>
        </mxCell>
        <mxCell id="QtUD3xpYhkbIIIGHQEFI-66" value="Private Subnet 10.0.3.0 / 24" style="points=[[0,0],[0.25,0],[0.5,0],[0.75,0],[1,0],[1,0.25],[1,0.5],[1,0.75],[1,1],[0.75,1],[0.5,1],[0.25,1],[0,1],[0,0.75],[0,0.5],[0,0.25]];outlineConnect=0;html=1;whiteSpace=wrap;fontSize=12;fontStyle=0;container=0;pointerEvents=0;collapsible=0;recursiveResize=0;shape=mxgraph.aws4.group;grIcon=mxgraph.aws4.group_security_group;grStroke=0;strokeColor=#82b366;fillColor=#d5e8d4;verticalAlign=top;align=left;spacingLeft=30;dashed=0;opacity=70;" parent="1" vertex="1">
          <mxGeometry x="320" y="550" width="400" height="210" as="geometry" />
        </mxCell>
        <mxCell id="QtUD3xpYhkbIIIGHQEFI-67" value="" style="outlineConnect=0;dashed=0;verticalLabelPosition=bottom;verticalAlign=top;align=center;html=1;shape=mxgraph.aws3.route_table;fillColor=#F58536;gradientColor=none;" parent="1" vertex="1">
          <mxGeometry x="700" y="600" width="50" height="40" as="geometry" />
        </mxCell>
        <mxCell id="QtUD3xpYhkbIIIGHQEFI-75" value="" style="group" parent="1" vertex="1" connectable="0">
          <mxGeometry x="825" y="140" width="120" height="60" as="geometry" />
        </mxCell>
        <mxCell id="QtUD3xpYhkbIIIGHQEFI-34" value="" style="outlineConnect=0;dashed=0;verticalLabelPosition=bottom;verticalAlign=top;align=center;html=1;shape=mxgraph.aws3.vpc_nat_gateway;fillColor=#F58536;gradientColor=none;rotation=-180;" parent="QtUD3xpYhkbIIIGHQEFI-75" vertex="1">
          <mxGeometry x="35" width="30" height="30" as="geometry" />
        </mxCell>
        <mxCell id="QtUD3xpYhkbIIIGHQEFI-70" value="" style="sketch=0;outlineConnect=0;fontColor=#232F3E;gradientColor=none;fillColor=#ED7100;strokeColor=none;dashed=0;verticalLabelPosition=bottom;verticalAlign=top;align=center;html=1;fontSize=12;fontStyle=0;aspect=fixed;pointerEvents=1;shape=mxgraph.aws4.elastic_ip_address;" parent="QtUD3xpYhkbIIIGHQEFI-75" vertex="1">
          <mxGeometry x="65" y="5" width="48" height="20" as="geometry" />
        </mxCell>
        <mxCell id="QtUD3xpYhkbIIIGHQEFI-74" value="NAT Gateway w/ EIP" style="text;html=1;align=center;verticalAlign=middle;whiteSpace=wrap;rounded=0;" parent="QtUD3xpYhkbIIIGHQEFI-75" vertex="1">
          <mxGeometry y="30" width="120" height="30" as="geometry" />
        </mxCell>
        <mxCell id="QtUD3xpYhkbIIIGHQEFI-78" value="" style="group" parent="1" vertex="1" connectable="0">
          <mxGeometry x="835" y="390" width="120" height="60" as="geometry" />
        </mxCell>
        <mxCell id="QtUD3xpYhkbIIIGHQEFI-58" value="" style="outlineConnect=0;dashed=0;verticalLabelPosition=bottom;verticalAlign=top;align=center;html=1;shape=mxgraph.aws3.vpc_nat_gateway;fillColor=#F58536;gradientColor=none;rotation=-180;" parent="QtUD3xpYhkbIIIGHQEFI-78" vertex="1">
          <mxGeometry x="35" width="30" height="30" as="geometry" />
        </mxCell>
        <mxCell id="QtUD3xpYhkbIIIGHQEFI-72" value="" style="sketch=0;outlineConnect=0;fontColor=#232F3E;gradientColor=none;fillColor=#ED7100;strokeColor=none;dashed=0;verticalLabelPosition=bottom;verticalAlign=top;align=center;html=1;fontSize=12;fontStyle=0;aspect=fixed;pointerEvents=1;shape=mxgraph.aws4.elastic_ip_address;" parent="QtUD3xpYhkbIIIGHQEFI-78" vertex="1">
          <mxGeometry x="65" y="5" width="48" height="20" as="geometry" />
        </mxCell>
        <mxCell id="QtUD3xpYhkbIIIGHQEFI-76" value="NAT Gateway w/ EIP" style="text;html=1;align=center;verticalAlign=middle;whiteSpace=wrap;rounded=0;" parent="QtUD3xpYhkbIIIGHQEFI-78" vertex="1">
          <mxGeometry y="30" width="120" height="30" as="geometry" />
        </mxCell>
        <mxCell id="QtUD3xpYhkbIIIGHQEFI-79" value="" style="group" parent="1" vertex="1" connectable="0">
          <mxGeometry x="835" y="640" width="120" height="60" as="geometry" />
        </mxCell>
        <mxCell id="QtUD3xpYhkbIIIGHQEFI-64" value="" style="outlineConnect=0;dashed=0;verticalLabelPosition=bottom;verticalAlign=top;align=center;html=1;shape=mxgraph.aws3.vpc_nat_gateway;fillColor=#F58536;gradientColor=none;rotation=-180;" parent="QtUD3xpYhkbIIIGHQEFI-79" vertex="1">
          <mxGeometry x="35" width="30" height="30" as="geometry" />
        </mxCell>
        <mxCell id="QtUD3xpYhkbIIIGHQEFI-73" value="" style="sketch=0;outlineConnect=0;fontColor=#232F3E;gradientColor=none;fillColor=#ED7100;strokeColor=none;dashed=0;verticalLabelPosition=bottom;verticalAlign=top;align=center;html=1;fontSize=12;fontStyle=0;aspect=fixed;pointerEvents=1;shape=mxgraph.aws4.elastic_ip_address;" parent="QtUD3xpYhkbIIIGHQEFI-79" vertex="1">
          <mxGeometry x="65" y="5" width="48" height="20" as="geometry" />
        </mxCell>
        <mxCell id="QtUD3xpYhkbIIIGHQEFI-77" value="NAT Gateway w/ EIP" style="text;html=1;align=center;verticalAlign=middle;whiteSpace=wrap;rounded=0;" parent="QtUD3xpYhkbIIIGHQEFI-79" vertex="1">
          <mxGeometry y="30" width="120" height="30" as="geometry" />
        </mxCell>
        <mxCell id="FNUv8KOx8wsYCtiW52kg-3" value="" style="endArrow=classic;html=1;rounded=0;exitX=1;exitY=0.5;exitDx=0;exitDy=0;exitPerimeter=0;" edge="1" parent="1" source="FNUv8KOx8wsYCtiW52kg-1" target="FNUv8KOx8wsYCtiW52kg-2">
          <mxGeometry width="50" height="50" relative="1" as="geometry">
            <mxPoint x="750" y="420" as="sourcePoint" />
            <mxPoint x="800" y="370" as="targetPoint" />
          </mxGeometry>
        </mxCell>
        <mxCell id="FNUv8KOx8wsYCtiW52kg-5" value="" style="group" vertex="1" connectable="0" parent="1">
          <mxGeometry x="1330" y="379.5" width="79.5" height="84" as="geometry" />
        </mxCell>
        <mxCell id="FNUv8KOx8wsYCtiW52kg-2" value="" style="outlineConnect=0;dashed=0;verticalLabelPosition=bottom;verticalAlign=top;align=center;html=1;shape=mxgraph.aws3.internet_2;fillColor=#D2D3D3;gradientColor=none;" vertex="1" parent="FNUv8KOx8wsYCtiW52kg-5">
          <mxGeometry width="79.5" height="54" as="geometry" />
        </mxCell>
        <mxCell id="FNUv8KOx8wsYCtiW52kg-4" value="Internet" style="text;html=1;align=center;verticalAlign=middle;whiteSpace=wrap;rounded=0;" vertex="1" parent="FNUv8KOx8wsYCtiW52kg-5">
          <mxGeometry x="8" y="54" width="60" height="30" as="geometry" />
        </mxCell>
        <mxCell id="FNUv8KOx8wsYCtiW52kg-7" value="" style="group" vertex="1" connectable="0" parent="1">
          <mxGeometry x="1173" y="379.5" width="60" height="83.5" as="geometry" />
        </mxCell>
        <mxCell id="FNUv8KOx8wsYCtiW52kg-1" value="" style="outlineConnect=0;dashed=0;verticalLabelPosition=bottom;verticalAlign=top;align=center;html=1;shape=mxgraph.aws3.internet_gateway;fillColor=#F58534;gradientColor=none;" vertex="1" parent="FNUv8KOx8wsYCtiW52kg-7">
          <mxGeometry x="7" width="50" height="51" as="geometry" />
        </mxCell>
        <mxCell id="FNUv8KOx8wsYCtiW52kg-6" value="Internet Gateway" style="text;html=1;align=center;verticalAlign=middle;whiteSpace=wrap;rounded=0;" vertex="1" parent="FNUv8KOx8wsYCtiW52kg-7">
          <mxGeometry y="53.5" width="60" height="30" as="geometry" />
        </mxCell>
      </root>
    </mxGraphModel>
  </diagram>
</mxfile>
